# Blender v2.74 (sub 0) OBJ File: 'sphere.blend'
# www.blender.org
mtllib sphere.mtl
o Icosphere_sphere
v 0.000000 -1.000000 0.000000
v 0.723607 -0.447220 0.525725
v -0.276388 -0.447220 0.850649
v -0.894426 -0.447216 0.000000
v -0.276388 -0.447220 -0.850649
v 0.723607 -0.447220 -0.525725
v 0.276388 0.447220 0.850649
v -0.723607 0.447220 0.525725
v -0.723607 0.447220 -0.525725
v 0.276388 0.447220 -0.850649
v 0.894426 0.447216 0.000000
v 0.000000 1.000000 0.000000
v -0.162456 -0.850654 0.499995
v 0.425323 -0.850654 0.309011
v 0.262869 -0.525738 0.809012
v 1.850648 -1.025736 0.000000
v 0.425323 -0.850654 -0.309011
v -0.525730 -0.850652 0.000000
v -0.688189 -0.525736 0.499997
v -0.162456 -0.850654 -0.499995
v -0.688189 -0.525736 -0.499997
v 0.262869 -0.525738 -0.809012
v 0.951058 0.000000 0.309013
v 0.951058 0.000000 -0.309013
v 0.000000 0.000000 1.000000
v 0.587786 0.000000 0.809017
v -0.951058 0.000000 0.309013
v -0.587786 0.000000 0.809017
v -0.587786 0.000000 -0.809017
v -0.951058 0.000000 -0.309013
v 0.587786 0.000000 -0.809017
v 0.000000 0.000000 -1.000000
v 1.188189 1.025736 0.999997
v -0.262869 0.525738 0.809012
v -0.850648 0.525736 0.000000
v -0.262869 0.525738 -0.809012
v 1.188189 1.025736 -0.999997
v 0.162456 0.850654 0.499995
v 0.525730 0.850652 0.000000
v -0.425323 0.850654 0.309011
v -0.425323 0.850654 -0.309011
v 0.162456 0.850654 -0.499995
v -1.951058 0.000000 0.000000
vn 0.000000 -1.000000 0.000000
vn 0.176300 -0.891200 0.417900
vn -0.162500 -0.850600 0.500000
vn 0.503200 -0.320000 0.802700
vn 0.883500 -0.468500 0.000000
vn -0.525700 -0.850600 0.000000
vn -0.162500 -0.850600 -0.500000
vn 0.176300 -0.891200 -0.417900
vn 0.935300 0.073300 0.346100
vn -0.276400 -0.447200 0.850600
vn 0.262900 -0.525700 0.809000
vn 0.000000 0.000000 1.000000
vn -0.768300 -0.640100 0.000000
vn -0.688200 -0.525700 0.500000
vn -0.699700 -0.017800 0.714200
vn -0.276400 -0.447200 -0.850600
vn -0.688200 -0.525700 -0.500000
vn -0.587800 0.000000 -0.809000
vn 0.503200 -0.320000 -0.802700
vn 0.262900 -0.525700 -0.809000
vn 0.473600 -0.233200 -0.849300
vn 0.473600 -0.233200 0.849300
vn -0.587800 0.000000 0.809000
vn -0.999800 -0.015600 0.000000
vn -0.743200 0.669000 0.000000
vn 0.000000 0.000000 -1.000000
vn 0.935300 0.073300 -0.346100
vn -0.060600 0.307900 0.949500
vn 0.615100 0.560700 0.554300
vn -0.119800 0.892300 0.435300
vn -0.723600 0.447200 0.525700
vn -0.262900 0.525700 0.809000
vn -0.425300 0.850600 0.309000
vn -0.723600 0.447200 -0.525700
vn -0.425300 0.850600 -0.309000
vn -0.060600 0.307900 -0.949500
vn -0.262900 0.525700 -0.809000
vn -0.119800 0.892300 -0.435300
vn 0.964200 0.265000 0.000000
vn 0.615100 0.560700 -0.554300
vn 0.308800 0.951100 0.000000
vn -0.699700 -0.017800 -0.714200
vn 0.000000 1.000000 0.000000
usemtl Material.001
s 1
f 1//1 14//2 13//3
f 2//4 14//2 16//5
f 1//1 13//3 18//6
f 1//1 18//6 20//7
f 1//1 20//7 17//8
f 2//4 16//5 23//9
f 3//10 15//11 25//12
f 4//13 19//14 27//15
f 5//16 21//17 29//18
f 6//19 22//20 31//21
f 2//4 23//9 26//22
f 3//10 25//12 28//23
f 43//24 27//15 35//25
f 5//16 29//18 32//26
f 6//19 31//21 24//27
f 7//28 33//29 38//30
f 8//31 34//32 40//33
f 9//34 35//25 41//35
f 10//36 36//37 42//38
f 11//39 37//40 39//41
f 13//3 15//11 3//10
f 13//3 14//2 15//11
f 14//2 2//4 15//11
f 16//5 17//8 6//19
f 16//5 14//2 17//8
f 14//2 1//1 17//8
f 18//6 19//14 4//13
f 18//6 13//3 19//14
f 13//3 3//10 19//14
f 20//7 21//17 5//16
f 20//7 18//6 21//17
f 18//6 4//13 21//17
f 17//8 22//20 6//19
f 17//8 20//7 22//20
f 20//7 5//16 22//20
f 23//9 24//27 11//39
f 23//9 16//5 24//27
f 16//5 6//19 24//27
f 25//12 26//22 7//28
f 25//12 15//11 26//22
f 15//11 2//4 26//22
f 27//15 28//23 8//31
f 27//15 19//14 28//23
f 19//14 3//10 28//23
f 29//18 30//42 9//34
f 29//18 21//17 30//42
f 21//17 4//13 30//42
f 31//21 32//26 10//36
f 31//21 22//20 32//26
f 22//20 5//16 32//26
f 26//22 33//29 7//28
f 26//22 23//9 33//29
f 23//9 11//39 33//29
f 28//23 34//32 8//31
f 28//23 25//12 34//32
f 25//12 7//28 34//32
f 30//42 35//25 9//34
f 35//25 30//42 43//24
f 27//15 8//31 35//25
f 32//26 36//37 10//36
f 32//26 29//18 36//37
f 29//18 9//34 36//37
f 24//27 37//40 11//39
f 24//27 31//21 37//40
f 31//21 10//36 37//40
f 38//30 39//41 12//43
f 38//30 33//29 39//41
f 33//29 11//39 39//41
f 40//33 38//30 12//43
f 40//33 34//32 38//30
f 34//32 7//28 38//30
f 41//35 40//33 12//43
f 41//35 35//25 40//33
f 35//25 8//31 40//33
f 42//38 41//35 12//43
f 42//38 36//37 41//35
f 36//37 9//34 41//35
f 39//41 42//38 12//43
f 39//41 37//40 42//38
f 37//40 10//36 42//38
f 4//13 43//24 30//42
f 4//13 27//15 43//24
